# xmcd CD database file
#
# Track frame offsets:
#	150
#	19975
#	36540
#	54717
#	66437
#	80075
#	98472
#	112397
#	129279
#	149335
#	169032
#	192037
#	210455
#	222675
#
# Disc length: 3200 seconds
#
# Revision: 0
# Processed by: cddbd v1.5PL3 Copyright (c) Steve Scherf et al.
# Submitted via: CDex 1.51
#
DISCID=d90c7e0e
DTITLE=Various Artist - Charanga y Salsa
DYEAR=1995
DGENRE=Salsa
TTITLE0=Fajardo y su charanga - ritmo de pollos
TTITLE1=alfredito linares - mambo rock
TTITLE2=orquesta broadway - arrepientete
TTITLE3=cortijo y su combo - oriza
TTITLE4=pupi legarreta - el platanal de bartolo
TTITLE5=eddie palmieri and ismael quintana - muñeca
TTITLE6=gilberto y su charanga - ritmo sabroso
TTITLE7=orlando contreras - mi son vueltabajero
TTITLE8=orquesta broadway - isla del encanto
TTITLE9=josé majagual jr - llora
TTITLE10=wayne gorbea - charanguiri
TTITLE11=eddie palmieri - la malanga
TTITLE12=juanucho lopez - jaqueton pachanguero
TTITLE13=ismael rivera, cortijo y su combo - el negro bombón
EXTD=YEAR: 1995
EXTT0=
EXTT1=
EXTT2=
EXTT3=
EXTT4=
EXTT5=
EXTT6=
EXTT7=
EXTT8=
EXTT9=
EXTT10=
EXTT11=
EXTT12=
EXTT13=
PLAYORDER=
